<svg id="Icons" xmlns="http://www.w3.org/2000/svg" viewBox="0 0 32 32"><title>edit</title><path id="Edit" d="M28.71,4.29a3.84,3.84,0,0,0-5.42,0L6.56,21a3,3,0,0,0-.63.94L3.08,28.61A1,1,0,0,0,4,30a1,1,0,0,0,.39-.08L11,27.07a3,3,0,0,0,.94-.64L28.71,9.71A3.84,3.84,0,0,0,28.71,4.29ZM12,23.59,9.41,21,22,8.41,24.59,11Zm-1.75,1.64L5.9,27.1l1.87-4.35A1.11,1.11,0,0,1,8,22.43l0,0L10.59,25l0,0A.85.85,0,0,1,10.25,25.23Zm17-16.94L26,9.59,23.41,7l1.3-1.29a1.82,1.82,0,0,1,2.58,2.58Z" style="fill:#767676"/></svg>