<svg id="Icons" xmlns="http://www.w3.org/2000/svg" viewBox="0 0 32 32"><title>external</title><g id="External"><path d="M21,19a1,1,0,0,0-1,1v5a1,1,0,0,1-1,1H3a1,1,0,0,1-1-1V7A1,1,0,0,1,3,6H19a1,1,0,0,1,1,1v5a1,1,0,0,0,2,0V7a3,3,0,0,0-3-3H3A3,3,0,0,0,0,7V25a3,3,0,0,0,3,3H19a3,3,0,0,0,3-3V20A1,1,0,0,0,21,19Z" style="fill:#767676"/><path d="M30.58,14.13l-3.8-4.76a1,1,0,0,0-1.56,1.25L28.72,15H16a1,1,0,0,0,0,2H28.72l-3.5,4.37a1,1,0,0,0,.16,1.41A1,1,0,0,0,26,23a1,1,0,0,0,.78-.38l3.8-4.75A3,3,0,0,0,30.58,14.13Z" style="fill:#767676"/></g></svg>