<svg id="Icons" xmlns="http://www.w3.org/2000/svg" viewBox="0 0 32 32"><title>filter</title><g id="Filter"><path d="M31,15H12.86a4,4,0,0,0-7.72,0H1a1,1,0,0,0,0,2H5.14a4,4,0,0,0,7.72,0H31a1,1,0,0,0,0-2ZM9,18a2,2,0,1,1,2-2A2,2,0,0,1,9,18Z" style="fill:#767676"/><path d="M31,5H29a.5.5,0,0,0-.13,0,4,4,0,0,0-7.73,0H1A1,1,0,0,0,1,7H21.14a4,4,0,0,0,7.73,0A.5.5,0,0,0,29,7h2a1,1,0,0,0,0-2ZM25,8a2,2,0,1,1,2-2A2,2,0,0,1,25,8Z" style="fill:#767676"/><path d="M31,25H22.86a4,4,0,0,0-7.72,0H1a1,1,0,0,0,0,2H15.14a4,4,0,0,0,7.72,0H31a1,1,0,0,0,0-2ZM19,28a2,2,0,1,1,2-2A2,2,0,0,1,19,28Z" style="fill:#767676"/></g></svg>