<svg id="Icons" xmlns="http://www.w3.org/2000/svg" viewBox="0 0 32 32"><title>google-plus</title><g id="Google_" data-name="Google+"><path d="M0,15.08a10.16,10.16,0,0,0,6.45,10c4,1.53,9,.49,11.56-3.07a11.66,11.66,0,0,0,1.84-7.85c-3.24,0-6.48,0-9.72,0,0,1.15,0,2.31,0,3.46,1.93.06,3.88,0,5.81.06-.85,4.3-6.69,5.69-9.79,2.89A6.52,6.52,0,0,1,6.47,10.4c2.31-1.84,5.6-1.38,7.91.21A36.07,36.07,0,0,0,17,7.94a10.29,10.29,0,0,0-6.79-2.5A10.13,10.13,0,0,0,0,15.08Zm26.16-3.86c0,1,0,1.93,0,2.9l-2.9,0V17l2.9,0c0,1,0,1.93,0,2.89h2.89c0-1,0-1.93,0-2.9L32,17V14.14l-2.9,0c0-1,0-1.93,0-2.9Z" style="fill:#767676"/><path d="M0,15.08A10.13,10.13,0,0,1,10.16,5.44,10.29,10.29,0,0,1,17,7.94a36.07,36.07,0,0,1-2.57,2.67c-2.31-1.59-5.6-2-7.91-.21a6.52,6.52,0,0,0-.28,10.15c3.1,2.8,8.94,1.41,9.79-2.89-1.93,0-3.88,0-5.81-.06,0-1.15,0-2.31,0-3.46,3.24,0,6.48,0,9.72,0A11.66,11.66,0,0,1,18,22c-2.52,3.56-7.6,4.6-11.56,3.07A10.16,10.16,0,0,1,0,15.08Z" style="fill:#767676"/><path d="M26.19,11.22h2.89c0,1,0,1.94,0,2.9l2.9,0V17l-2.9,0c0,1,0,1.94,0,2.9H26.19c0-1,0-1.93,0-2.89l-2.9,0V14.14l2.9,0C26.17,13.15,26.18,12.19,26.19,11.22Z" style="fill:#767676"/></g></svg>