<svg id="Icons" xmlns="http://www.w3.org/2000/svg" viewBox="0 0 32 32"><title>help</title><g id="Help"><path d="M17,32a4,4,0,1,1,4-4A4,4,0,0,1,17,32Zm0-6a2,2,0,1,0,2,2A2,2,0,0,0,17,26Z" style="fill:#767676"/><path d="M17,23a3,3,0,0,1-3-3,9.47,9.47,0,0,1,3-7.2c.25-.26.54-.53.85-.81,1-.91,2.11-2,2.11-3a3,3,0,0,0-6,0v1a3,3,0,0,1-6,0V9A9,9,0,0,1,26,9c0,2.76-1.75,4.61-3.3,6.25S20,18.11,20,20A3,3,0,0,1,17,23ZM17,4a5,5,0,0,1,5,5c0,1.92-1.53,3.33-2.76,4.46-.27.25-.54.5-.76.73A7.56,7.56,0,0,0,16,20a1,1,0,0,0,2,0c0-2.69,1.73-4.52,3.25-6.13S24,11,24,9A7,7,0,0,0,10,9v1a1,1,0,0,0,2,0V9A5,5,0,0,1,17,4Z" style="fill:#767676"/></g></svg>