<svg id="Icons" xmlns="http://www.w3.org/2000/svg" viewBox="0 0 32 32"><title>hide</title><g id="View_Hide" data-name="View/Hide"><path d="M16,24c-.44,0-.87,0-1.3-.06a1,1,0,0,1-.91-1.08A1,1,0,0,1,14.87,22c.37,0,.75.05,1.13.05,6,0,11.54-4.28,13.52-6a29.66,29.66,0,0,0-5.73-3.9,1,1,0,1,1,.91-1.79,31,31,0,0,1,7,5,1,1,0,0,1,0,1.42C31.41,17,24.32,24,16,24Z" style="fill:#767676"/><path d="M24.62,5.22a1,1,0,0,0-1.4.16l-2.65,3.3A16.93,16.93,0,0,0,16,8C7.68,8,.59,15,.29,15.29a1,1,0,0,0,0,1.42,30,30,0,0,0,9.12,5.93L7.22,25.38a1,1,0,0,0,.16,1.4A1,1,0,0,0,8,27a1,1,0,0,0,.78-.38l3.08-3.85h0L24.78,6.62A1,1,0,0,0,24.62,5.22ZM2.48,16c2-1.72,7.5-6,13.52-6a14.58,14.58,0,0,1,3.21.39L10.73,21A27.83,27.83,0,0,1,2.48,16Z" style="fill:#767676"/><path d="M16,21a5,5,0,1,1,5-5A5,5,0,0,1,16,21Zm0-8a3,3,0,1,0,3,3A3,3,0,0,0,16,13Z" style="fill:#767676"/></g></svg>