<svg id="Icons" xmlns="http://www.w3.org/2000/svg" viewBox="0 0 32 32"><title>like</title><g id="Like"><path d="M16,29.12a3,3,0,0,1-2.16-.92h0L2.42,16.34A8.23,8.23,0,0,1,.68,13.82,8.5,8.5,0,0,1,16,6.5,8.64,8.64,0,0,1,18.08,4a8.5,8.5,0,0,1,13.26,9.83,8.39,8.39,0,0,1-1.74,2.53L18.16,28.2A3,3,0,0,1,16,29.12Zm-.72-2.31a1,1,0,0,0,1.44,0L28.16,14.92A6.27,6.27,0,0,0,29.5,13a6.58,6.58,0,0,0,.38-3.78,6.49,6.49,0,0,0-5.09-5.1,6.57,6.57,0,0,0-5.43,1.37,6.49,6.49,0,0,0-2.36,5,1,1,0,0,1-2,0,6.49,6.49,0,0,0-2.36-5A6.57,6.57,0,0,0,7.21,4.12,6.49,6.49,0,0,0,2.52,13,6.34,6.34,0,0,0,3.86,15Z" style="fill:#767676"/></g></svg>