<svg id="Icons" xmlns="http://www.w3.org/2000/svg" viewBox="0 0 32 32"><title>pinterest</title><g id="Pinterest"><path d="M16,0A16,16,0,0,0,9.58,30.65,13.71,13.71,0,0,1,9.86,27c.3-1.3,2.05-8.72,2.05-8.72a6.15,6.15,0,0,1-.51-2.53c0-2.37,1.38-4.14,3.09-4.14A2.14,2.14,0,0,1,16.65,14c0,1.46-.94,3.65-1.41,5.68a2.47,2.47,0,0,0,2.52,3.08c3,0,5.07-3.89,5.07-8.51,0-3.5-2.36-6.13-6.65-6.13A7.57,7.57,0,0,0,8.3,15.77a4.63,4.63,0,0,0,1,3.14.76.76,0,0,1,.23.89c-.07.3-.25,1-.32,1.29a.55.55,0,0,1-.8.4c-2.24-.91-3.28-3.36-3.28-6.11,0-4.55,3.83-10,11.44-10,6.1,0,10.12,4.42,10.12,9.17,0,6.27-3.49,11-8.63,11a4.59,4.59,0,0,1-3.91-2s-.93,3.68-1.12,4.4a13.66,13.66,0,0,1-1.61,3.42A15.75,15.75,0,0,0,16,32,16,16,0,0,0,16,0" style="fill:#767676"/></g></svg>