<svg id="Icons" xmlns="http://www.w3.org/2000/svg" viewBox="0 0 32 32"><title>quality</title><g id="Quality"><path d="M27,11A11,11,0,1,0,9,19.48V31a1,1,0,0,0,.62.92,1,1,0,0,0,1.09-.21L16,26.41l5.29,5.3A1,1,0,0,0,22,32a.84.84,0,0,0,.38-.08A1,1,0,0,0,23,31V19.48A11,11,0,0,0,27,11ZM7,11a9,9,0,1,1,9,9A9,9,0,0,1,7,11ZM21,28.59,17.41,25a2,2,0,0,0-2.82,0L11,28.59v-7.8a10.94,10.94,0,0,0,10,0Z" style="fill:#767676"/><path d="M16,18a7,7,0,1,1,7-7A7,7,0,0,1,16,18ZM16,6a5,5,0,1,0,5,5A5,5,0,0,0,16,6Z" style="fill:#767676"/></g></svg>