<svg id="Icons" xmlns="http://www.w3.org/2000/svg" viewBox="0 0 32 32"><title>twitter</title><g id="Twitter"><path d="M10.06,29A18.62,18.62,0,0,1,0,26.05a13.51,13.51,0,0,0,1.57.09,13.19,13.19,0,0,0,8.15-2.81,6.56,6.56,0,0,1-6.13-4.56,6.26,6.26,0,0,0,1.23.12,6.57,6.57,0,0,0,1.73-.23,6.57,6.57,0,0,1-5.26-6.44v-.08a6.46,6.46,0,0,0,3,.82A6.57,6.57,0,0,1,1.34,7.5a6.47,6.47,0,0,1,.89-3.3,18.66,18.66,0,0,0,13.53,6.86,6.83,6.83,0,0,1-.17-1.5A6.57,6.57,0,0,1,27,5.07a13.18,13.18,0,0,0,4.17-1.6,6.63,6.63,0,0,1-2.89,3.64,13.25,13.25,0,0,0,3.77-1,13.1,13.1,0,0,1-3.28,3.4c0,.28,0,.57,0,.85C28.74,19,22.14,29,10.06,29" style="fill:#767676"/></g></svg>