<svg id="Icons" xmlns="http://www.w3.org/2000/svg" viewBox="0 0 32 32"><title>warning</title><g id="Warning"><path d="M16,32A16,16,0,1,1,32,16,16,16,0,0,1,16,32ZM16,2A14,14,0,1,0,30,16,14,14,0,0,0,16,2Z" style="fill:#767676"/><path d="M16,19a1,1,0,0,1-1-1V10a1,1,0,0,1,2,0v8A1,1,0,0,1,16,19Z" style="fill:#767676"/><path d="M16,23a1,1,0,0,1-.38-.08,1,1,0,0,1-.33-.21,1.58,1.58,0,0,1-.12-.15.76.76,0,0,1-.09-.18A.64.64,0,0,1,15,22.2a1,1,0,0,1,0-.4.64.64,0,0,1,.06-.18.76.76,0,0,1,.09-.18,1.58,1.58,0,0,1,.12-.15,1,1,0,0,1,.33-.21,1,1,0,0,1,1.09.21,1.58,1.58,0,0,1,.12.15.76.76,0,0,1,.09.18.64.64,0,0,1,.06.18,1,1,0,0,1,0,.4.64.64,0,0,1-.06.18.76.76,0,0,1-.09.18,1.58,1.58,0,0,1-.12.15A1.05,1.05,0,0,1,16,23Z" style="fill:#767676"/></g></svg>