<svg id="Icons" xmlns="http://www.w3.org/2000/svg" viewBox="0 0 32 32"><title>youtube</title><g id="YouTube"><path d="M31.68,9.78a6.76,6.76,0,0,0-1.27-3.13A4.62,4.62,0,0,0,27.2,5.32C22.72,5,16,5,16,5h0S9.28,5,4.8,5.32A4.62,4.62,0,0,0,1.59,6.65,6.76,6.76,0,0,0,.32,9.78,46.94,46.94,0,0,0,0,14.88v2.39a46.64,46.64,0,0,0,.32,5.09,6.76,6.76,0,0,0,1.27,3.13,5.46,5.46,0,0,0,3.53,1.35c2.56.24,10.88.31,10.88.31s6.72,0,11.2-.32a4.64,4.64,0,0,0,3.21-1.34,6.76,6.76,0,0,0,1.27-3.13A46.64,46.64,0,0,0,32,17.27V14.88a46.94,46.94,0,0,0-.32-5.1m-19,10.38V11.31l8.64,4.44Z" style="fill:#767676"/></g></svg>