<svg id="Icons" xmlns="http://www.w3.org/2000/svg" viewBox="0 0 32 32"><title>external--xs</title><g id="External"><path d="M18,18a1,1,0,0,0-1,1,1,1,0,0,1-1,1H11a1,1,0,0,1-1-1V13a1,1,0,0,1,1-1h5a1,1,0,0,1,1,1,1,1,0,0,0,2,0,3,3,0,0,0-3-3H11a3,3,0,0,0-3,3v6a3,3,0,0,0,3,3h5a3,3,0,0,0,3-3A1,1,0,0,0,18,18Z" style="fill:#767676"/><path d="M23.93,16.35a1.05,1.05,0,0,0,0-.7.93.93,0,0,0-.05-.1s0-.07-.05-.1l-2-3a1,1,0,0,0-1.66,1.1l1,1.45H16a1,1,0,0,0,0,2h5.13l-1,1.45a1,1,0,0,0,.28,1.38A.94.94,0,0,0,21,20a1,1,0,0,0,.83-.45l2-3s0-.07.05-.1A.93.93,0,0,0,23.93,16.35Z" style="fill:#767676"/></g></svg>