<svg id="Icons" xmlns="http://www.w3.org/2000/svg" viewBox="0 0 32 32"><title>google-plus--xs</title><g id="Google_" data-name="Google+"><path d="M8,15.34a5.08,5.08,0,0,0,3.23,5A5,5,0,0,0,17,18.8a5.79,5.79,0,0,0,.92-3.93H13.08V16.6c1,0,1.94,0,2.91,0-.43,2.14-3.35,2.84-4.89,1.44A3.25,3.25,0,0,1,11.24,13a3.35,3.35,0,0,1,3.95.1c.45-.42.88-.87,1.29-1.33a5.18,5.18,0,0,0-3.4-1.26A5.08,5.08,0,0,0,8,15.34ZM21.1,13.41c0,.48,0,1,0,1.45H19.63v1.44h1.45c0,.49,0,1,0,1.45h1.45c0-.48,0-1,0-1.45H24V14.87H22.55c0-.49,0-1,0-1.45Z" style="fill:#767676"/><path d="M8,15.34a5.08,5.08,0,0,1,5.07-4.83,5.18,5.18,0,0,1,3.4,1.26c-.41.46-.84.91-1.29,1.33a3.35,3.35,0,0,0-3.95-.1,3.25,3.25,0,0,0-.14,5.07c1.54,1.4,4.46.7,4.89-1.44-1,0-1.94,0-2.91,0V14.86h4.86A5.79,5.79,0,0,1,17,18.8a5,5,0,0,1-5.78,1.53A5.08,5.08,0,0,1,8,15.34Z" style="fill:#767676"/><path d="M21.1,13.41h1.44c0,.48,0,1,0,1.45H24v1.44H22.55c0,.49,0,1,0,1.45H21.09c0-.48,0-1,0-1.45H19.63V14.87h1.45C21.09,14.37,21.09,13.89,21.1,13.41Z" style="fill:#767676"/></g></svg>