<svg id="Icons" xmlns="http://www.w3.org/2000/svg" viewBox="0 0 32 32"><title>hide--xs</title><g id="View_Hide" data-name="View/Hide"><path d="M23.77,15.37a15.35,15.35,0,0,0-3.45-3l1.45-1.74a1,1,0,0,0-1.54-1.28l-1.76,2.11A7.32,7.32,0,0,0,16,11c-4.16,0-7.63,4.19-7.77,4.37a1,1,0,0,0,0,1.26,15.35,15.35,0,0,0,3.45,3l-1.45,1.74a1,1,0,0,0,.13,1.41A1,1,0,0,0,11,23a1,1,0,0,0,.77-.36l1.76-2.11A7.32,7.32,0,0,0,16,21c4.16,0,7.63-4.19,7.77-4.37A1,1,0,0,0,23.77,15.37ZM10.35,16c1.18-1.2,3.43-3,5.65-3a5,5,0,0,1,1.08.14L13,18.06A13.37,13.37,0,0,1,10.35,16ZM16,19a5,5,0,0,1-1.08-.14L19,13.94A13.37,13.37,0,0,1,21.65,16C20.47,17.2,18.22,19,16,19Z" style="fill:#767676"/><circle cx="16" cy="16" r="2" style="fill:#767676"/></g></svg>