<svg id="Icons" xmlns="http://www.w3.org/2000/svg" viewBox="0 0 32 32"><title>instagram--xs</title><g id="Instagram"><path d="M16,9.44c2.14,0,2.39,0,3.23.05a4.33,4.33,0,0,1,1.49.27,2.67,2.67,0,0,1,1.52,1.52,4.33,4.33,0,0,1,.27,1.49c0,.84,0,1.09,0,3.23s0,2.39,0,3.23a4.33,4.33,0,0,1-.27,1.49,2.67,2.67,0,0,1-1.52,1.52,4.33,4.33,0,0,1-1.49.27c-.84,0-1.09,0-3.23,0s-2.39,0-3.23,0a4.33,4.33,0,0,1-1.49-.27,2.67,2.67,0,0,1-1.52-1.52,4.33,4.33,0,0,1-.27-1.49c0-.84-.05-1.09-.05-3.23s0-2.39.05-3.23a4.33,4.33,0,0,1,.27-1.49,2.67,2.67,0,0,1,1.52-1.52,4.33,4.33,0,0,1,1.49-.27c.84,0,1.09-.05,3.23-.05M16,8c-2.17,0-2.45,0-3.3.05a5.85,5.85,0,0,0-1.94.37,4,4,0,0,0-2.34,2.34,5.85,5.85,0,0,0-.37,1.94C8,13.55,8,13.83,8,16s0,2.45.05,3.3a5.85,5.85,0,0,0,.37,1.94,4,4,0,0,0,2.34,2.34A5.85,5.85,0,0,0,12.7,24c.85,0,1.13.05,3.3.05s2.45,0,3.3-.05a5.85,5.85,0,0,0,1.94-.37,4,4,0,0,0,2.34-2.34A5.85,5.85,0,0,0,24,19.3c0-.85.05-1.13.05-3.3s0-2.45-.05-3.3a5.85,5.85,0,0,0-.37-1.94,4,4,0,0,0-2.34-2.34,5.85,5.85,0,0,0-1.94-.37C18.45,8,18.17,8,16,8Z" style="fill:#767676"/><path d="M16,11.89A4.11,4.11,0,1,0,20.11,16,4.11,4.11,0,0,0,16,11.89Zm0,6.78A2.67,2.67,0,1,1,18.67,16,2.68,2.68,0,0,1,16,18.67Z" style="fill:#767676"/><circle cx="20.27" cy="11.73" r="0.96" style="fill:#767676"/></g></svg>