<svg id="Icons" xmlns="http://www.w3.org/2000/svg" viewBox="0 0 32 32"><title>like--xs</title><g id="Like"><path d="M16,23a1.91,1.91,0,0,1-1.4-.61h0L9.27,16.73a4.5,4.5,0,0,1-.91-1.36,4.65,4.65,0,0,1-.28-2.66,4.53,4.53,0,0,1,3.54-3.62,4.47,4.47,0,0,1,3.71.93,4.31,4.31,0,0,1,.67.68,4.31,4.31,0,0,1,.67-.68,4.47,4.47,0,0,1,3.71-.93,4.53,4.53,0,0,1,3.54,3.6,4.73,4.73,0,0,1-.27,2.66,4.32,4.32,0,0,1-.91,1.36L17.4,22.39A1.91,1.91,0,0,1,16,23ZM12.5,11a2.92,2.92,0,0,0-.5.05,2.51,2.51,0,0,0-1.95,2,2.66,2.66,0,0,0,.15,1.53,2.77,2.77,0,0,0,.53.76L16,21l5.26-5.64a2.4,2.4,0,0,0,.52-.76A2.62,2.62,0,0,0,22,13.06a2.51,2.51,0,0,0-1.95-2,2.42,2.42,0,0,0-2.06.51,2.61,2.61,0,0,0-.94,2,1,1,0,0,1-2,0,2.61,2.61,0,0,0-.94-2A2.43,2.43,0,0,0,12.5,11Z" style="fill:#767676"/></g></svg>