<svg id="Icons" xmlns="http://www.w3.org/2000/svg" viewBox="0 0 32 32"><title>pinterest--xs</title><g id="Pinterest"><path d="M16,8a8,8,0,0,0-3.21,15.33,6.88,6.88,0,0,1,.14-1.84c.15-.65,1-4.36,1-4.36a3,3,0,0,1-.26-1.26c0-1.19.69-2.08,1.54-2.08A1.08,1.08,0,0,1,16.32,15a17,17,0,0,1-.7,2.83,1.24,1.24,0,0,0,1.26,1.55c1.52,0,2.54-1.95,2.54-4.26a3,3,0,0,0-3.33-3.06,3.79,3.79,0,0,0-3.94,3.83,2.28,2.28,0,0,0,.53,1.57.38.38,0,0,1,.11.44c0,.15-.12.5-.16.64a.27.27,0,0,1-.4.2,3.07,3.07,0,0,1-1.64-3c0-2.27,1.92-5,5.72-5a4.78,4.78,0,0,1,5.06,4.58c0,3.14-1.74,5.49-4.31,5.49a2.3,2.3,0,0,1-2-1s-.46,1.84-.56,2.2a6.43,6.43,0,0,1-.81,1.71A8.09,8.09,0,0,0,16,24,8,8,0,0,0,16,8" style="fill:#767676"/></g></svg>