<svg id="Icons" xmlns="http://www.w3.org/2000/svg" viewBox="0 0 32 32"><title>quality--xs</title><g id="Quality"><path d="M22,14a6,6,0,0,0-12,0,5.93,5.93,0,0,0,2,4.46V23a1,1,0,0,0,.53.88,1,1,0,0,0,1-.05L16,22.2l2.45,1.63A1,1,0,0,0,20,23V18.46A6,6,0,0,0,22,14Zm-3.6,3.2,0,.05a1,1,0,0,0-.13.16.83.83,0,0,0-.11.15l-.06.17c0,.07,0,.13,0,.2S18,18,18,18v3.13l-1.45-1a1,1,0,0,0-1.1,0l-1.45,1V18s0,0,0-.06a.79.79,0,0,0-.05-.22,1,1,0,0,0,0-.16,1.53,1.53,0,0,0-.11-.16l-.13-.15-.05-.05A4,4,0,0,1,12,14a4,4,0,0,1,8,0A4,4,0,0,1,18.4,17.2Z" style="fill:#767676"/><path d="M16,11a3,3,0,1,0,3,3A3,3,0,0,0,16,11Zm0,4a1,1,0,1,1,1-1A1,1,0,0,1,16,15Z" style="fill:#767676"/></g></svg>