<svg id="Icons" xmlns="http://www.w3.org/2000/svg" viewBox="0 0 32 32"><title>twitter--xs</title><g id="Twitter"><path d="M13,22.79a9.22,9.22,0,0,1-5-1.48,6.81,6.81,0,0,0,.78.05A6.53,6.53,0,0,0,12.86,20a3.28,3.28,0,0,1-3.07-2.27,4.21,4.21,0,0,0,.62.05,3.58,3.58,0,0,0,.87-.11A3.28,3.28,0,0,1,8.64,14.4v0a3.42,3.42,0,0,0,1.49.41,3.29,3.29,0,0,1-1-4.38,9.36,9.36,0,0,0,6.77,3.43,3.08,3.08,0,0,1-.09-.75,3.29,3.29,0,0,1,5.68-2.25A6.6,6.6,0,0,0,23.56,10a3.3,3.3,0,0,1-1.45,1.81A6.6,6.6,0,0,0,24,11.33,6.75,6.75,0,0,1,22.36,13c0,.15,0,.29,0,.43A9.27,9.27,0,0,1,13,22.79" style="fill:#767676"/></g></svg>