<svg id="Icons" xmlns="http://www.w3.org/2000/svg" viewBox="0 0 32 32"><title>youtube--xs</title><g id="YouTube"><path d="M23.84,12.93a3.42,3.42,0,0,0-.64-1.57,2.28,2.28,0,0,0-1.6-.66c-2.24-.16-5.6-.16-5.6-.16h0s-3.36,0-5.6.16a2.28,2.28,0,0,0-1.6.66,3.42,3.42,0,0,0-.64,1.57A23.35,23.35,0,0,0,8,15.48v1.19a23.35,23.35,0,0,0,.16,2.55,3.36,3.36,0,0,0,.64,1.56,2.73,2.73,0,0,0,1.76.68c1.28.12,5.44.16,5.44.16s3.36,0,5.6-.17a2.3,2.3,0,0,0,1.6-.67,3.36,3.36,0,0,0,.64-1.56A23.35,23.35,0,0,0,24,16.67V15.48a23.35,23.35,0,0,0-.16-2.55m-9.49,5.19V13.69l4.32,2.22Z" style="fill:#767676"/></g></svg>