<svg id="Icons" xmlns="http://www.w3.org/2000/svg" viewBox="0 0 32 32"><title>food2--xs</title><path id="Food_2_" data-name="Food(2)" d="M22.92,8.62a1,1,0,0,0-.54-.54,1,1,0,0,0-.76,0,1,1,0,0,0-.33.21L20,9.59l-1.29-1.3a1,1,0,0,0-1.42,0L16,9.59l-1.29-1.3a1,1,0,0,0-1.42,0L12,9.59l-1.29-1.3a1,1,0,0,0-.33-.21,1,1,0,0,0-.76,0,1,1,0,0,0-.54.54A1,1,0,0,0,9,9V22a2,2,0,0,0,2,2H21a2,2,0,0,0,2-2V9A1,1,0,0,0,22.92,8.62ZM11,16H21v2H11Zm1.71-4.29L14,10.41l1.29,1.3a1,1,0,0,0,1.42,0L18,10.41l1.29,1.3a1,1,0,0,0,1.42,0l.29-.3V14H11V11.41l.29.3A1,1,0,0,0,12.71,11.71ZM11,22V20H21v2Z" style="fill:#767676"/></svg>