<svg id="Icons" xmlns="http://www.w3.org/2000/svg" viewBox="0 0 32 32"><title>groomer--xs</title><path id="Groomer" d="M23.08,10.54l-.31-.31h0L21.13,8.59a1,1,0,0,0-1.42,0,1,1,0,0,0,0,1.41l1.64,1.64h0l.32.31a.88.88,0,0,1,0,1.24l-.78.78-2.81-2.81a1,1,0,0,0-1.42,0,1,1,0,0,0,0,1.41l2.81,2.81-1.4,1.4L15.26,14a1,1,0,0,0-1.41,0,1,1,0,0,0,0,1.42l2.81,2.81-1.4,1.4L12.45,16.8a1,1,0,0,0-1.42,0,1,1,0,0,0,0,1.41L13.84,21l-.78.78a.88.88,0,0,1-1.24,0l-.31-.31h0L9.63,19.61a1,1,0,0,0-1.41,0,1,1,0,0,0,0,1.42l1.87,1.87h0l.31.32a2.89,2.89,0,0,0,4.07,0L16,21.73h0l7.11-7.12A2.89,2.89,0,0,0,23.08,10.54Z" style="fill:#767676"/></svg>