<svg id="Icons" xmlns="http://www.w3.org/2000/svg" viewBox="0 0 32 32"><title>health--xs</title><g id="Health"><path d="M12.16,18a1,1,0,0,1-.72-.31L9.28,15.44a4.43,4.43,0,0,1-.92-1.3,4.38,4.38,0,0,1-.28-2.58,4.45,4.45,0,0,1,3.55-3.48,4.58,4.58,0,0,1,3.78,1,4.11,4.11,0,0,1,.59.59,4.11,4.11,0,0,1,.59-.59,4.58,4.58,0,0,1,3.78-1,4.46,4.46,0,0,1,3.55,3.46,4.38,4.38,0,0,1-.27,2.58,4.26,4.26,0,0,1-.93,1.32l-2.06,2.24a1,1,0,1,1-1.47-1.36l2.09-2.26a2.7,2.7,0,0,0,.53-.73,2.31,2.31,0,0,0,.14-1.4A2.43,2.43,0,0,0,20,10.05a2.58,2.58,0,0,0-2.14.53A2.39,2.39,0,0,0,17,12.41a1,1,0,0,1-2,0,2.39,2.39,0,0,0-.87-1.83A2.58,2.58,0,0,0,12,10.05a2.45,2.45,0,0,0-1.94,1.89,2.24,2.24,0,0,0,.15,1.4,2.32,2.32,0,0,0,.51.71l2.17,2.26a1,1,0,0,1,0,1.41A1,1,0,0,1,12.16,18Z" style="fill:#767676"/><path d="M20,22H17V19.41l.29.3a1,1,0,0,0,1.42,0,1,1,0,0,0,0-1.42l-2-2a1,1,0,0,0-.33-.21,1,1,0,0,0-.76,0,1,1,0,0,0-.33.21l-2,2a1,1,0,0,0,0,1.42,1,1,0,0,0,1.42,0l.29-.3V22H12a1,1,0,0,0,0,2h8a1,1,0,0,0,0-2Z" style="fill:#767676"/></g></svg>