<svg id="Icons" xmlns="http://www.w3.org/2000/svg" viewBox="0 0 32 32"><title>knowledge--xs</title><g id="Knowledge"><path d="M23,22h-.76A5.48,5.48,0,0,0,20,13.39l3.68-3.68a1,1,0,0,0,.21-1.09A1,1,0,0,0,23,8H19a1,1,0,0,0-.71.29l-7,7a1,1,0,0,0,0,1.42l2,2a1,1,0,0,0,1.42,0l3.7-3.7A3.51,3.51,0,0,1,18,22H9a1,1,0,0,0,0,2H23a1,1,0,0,0,0-2Zm-9-5.41L13.41,16l6-6h1.18Z" style="fill:#767676"/><path d="M11,20.27a1,1,0,0,0,1.41,0,1,1,0,0,0,0-1.41l-1-1a1,1,0,0,0-1.41,0,1,1,0,0,0,0,1.41Z" style="fill:#767676"/></g></svg>