<svg id="Icons" xmlns="http://www.w3.org/2000/svg" viewBox="0 0 32 32"><title>nutritional--xs</title><path id="Nutritional" d="M21,8H11a3,3,0,0,0-3,3V21a3,3,0,0,0,3,3H21a3,3,0,0,0,3-3V11A3,3,0,0,0,21,8Zm-3,5.51A4.37,4.37,0,0,0,18.27,15H17V12h0a1,1,0,0,0-1.71-.73,2.46,2.46,0,0,1-1.78.74,2.52,2.52,0,0,1-2.46-2H19.7A4.52,4.52,0,0,0,18,13.51ZM13.51,14A4.37,4.37,0,0,0,15,13.73V15H12a1,1,0,0,0-.72.29,1,1,0,0,0,0,1.42A2.52,2.52,0,0,1,10,21h0V12.3A4.52,4.52,0,0,0,13.51,14Zm.5,4.49A4.37,4.37,0,0,0,13.74,17H15v3h0a1,1,0,0,0,1.71.73A2.46,2.46,0,0,1,18.49,20,2.52,2.52,0,0,1,21,22H12.31A4.52,4.52,0,0,0,14,18.49ZM18.49,18a4.37,4.37,0,0,0-1.49.27V17h3a1,1,0,0,0,.71-.29,1,1,0,0,0,0-1.42A2.46,2.46,0,0,1,20,13.51a2.52,2.52,0,0,1,2-2.46V19.7A4.52,4.52,0,0,0,18.49,18Z" style="fill:#767676"/></svg>