<svg xmlns="http://www.w3.org/2000/svg" viewBox="0 0 32 32"><title>expert-advice--medium</title><g id="Icons"><g id="Expert_Advice" data-name="Expert Advice"><path d="M16,11H9A1,1,0,0,1,9,9h7a1,1,0,0,1,0,2Z" style="fill:#767676"/><path d="M25,13H21V7a3,3,0,0,0-3-3H7A3,3,0,0,0,4,7v6a3,3,0,0,0,3,3v.92a2,2,0,0,0,1.13,1.8,1.94,1.94,0,0,0,.87.2,2,2,0,0,0,1.25-.44l.75-.6V22a3,3,0,0,0,3,3h1v.92a2,2,0,0,0,1.13,1.8,1.94,1.94,0,0,0,.87.2,2,2,0,0,0,1.25-.44L21.35,25H25a3,3,0,0,0,3-3V16A3,3,0,0,0,25,13ZM9,16.92V15a1,1,0,0,0-1-1H7a1,1,0,0,1-1-1V7A1,1,0,0,1,7,6H18a1,1,0,0,1,1,1v6H14a3,3,0,0,0-2.89,2.23ZM26,22a1,1,0,0,1-1,1H21a1,1,0,0,0-.62.22L17,25.92V24a1,1,0,0,0-1-1H14a1,1,0,0,1-1-1V16a1,1,0,0,1,1-1H25a1,1,0,0,1,1,1Z" style="fill:#767676"/><path d="M23,20H16a1,1,0,0,1,0-2h7a1,1,0,0,1,0,2Z" style="fill:#767676"/></g></g></svg>