<svg xmlns="http://www.w3.org/2000/svg" viewBox="0 0 32 32"><title>basket--sm</title><g id="Icons"><g id="Online_Retailer" data-name="Online Retailer"><path d="M26.78,14.17A3,3,0,0,0,24.41,13h-.92L18.37,6.42a3,3,0,0,0-4.74,0L8.51,13H7.59a3,3,0,0,0-2.37,1.17,2.94,2.94,0,0,0-.53,2.59l2.37,9.06A2.93,2.93,0,0,0,9.91,28H22.09a2.93,2.93,0,0,0,2.85-2.18l2.37-9.06A2.94,2.94,0,0,0,26.78,14.17ZM25.2,15.39a1,1,0,0,1,.18.86L24.66,19H22.24l.62-4h1.55A1,1,0,0,1,25.2,15.39ZM15,21v5H12.86l-.77-5Zm-3.22-2-.61-4H15v4ZM17,21h2.91l-.77,5H17Zm0-2V15h3.83l-.61,4ZM15.21,7.64a1,1,0,0,1,1.58,0L21,13H11ZM6.8,15.39A1,1,0,0,1,7.59,15H9.14l.62,4H7.34l-.72-2.75A1,1,0,0,1,6.8,15.39ZM9,25.32,7.87,21h2.2l.76,5H9.91A.93.93,0,0,1,9,25.32ZM22.09,26h-.92l.76-5h2.2L23,25.32A.93.93,0,0,1,22.09,26Z" style="fill:#767676"/></g></g></svg>