<svg id="Icons" xmlns="http://www.w3.org/2000/svg" viewBox="0 0 32 32"><title>external</title><g id="External"><path d="M18,18a1,1,0,0,0-1,1,1,1,0,0,1-1,1H11a1,1,0,0,1-1-1V13a1,1,0,0,1,1-1h5a1,1,0,0,1,1,1,1,1,0,0,0,2,0,3,3,0,0,0-3-3H11a3,3,0,0,0-3,3v6a3,3,0,0,0,3,3h5a3,3,0,0,0,3-3A1,1,0,0,0,18,18Z" style="fill:#767676"/><path d="M23.93,16.35a1,1,0,0,0,0-.69l0-.1a1,1,0,0,0-.05-.11l-2-3a1,1,0,1,0-1.66,1.11l1,1.45H16a1,1,0,0,0,0,2h5.13l-1,1.45a1,1,0,1,0,1.66,1.11l2-3a1,1,0,0,0,.05-.11Z" style="fill:#767676"/></g></svg>