<?xml version="1.0" encoding="utf-8"?>
<!-- Generator: Adobe Illustrator 22.0.1, SVG Export Plug-In . SVG Version: 6.00 Build 0)  -->
<svg version="1.1" id="Icons" xmlns="http://www.w3.org/2000/svg" xmlns:xlink="http://www.w3.org/1999/xlink" x="0px" y="0px"
	 viewBox="0 0 32 32" style="enable-background:new 0 0 32 32;" xml:space="preserve">
<style type="text/css">
	.st0{fill:#47B800;}
</style>
<title>success</title>
<g id="Success">
	<path class="st0" d="M16,24c-4.4,0-8-3.6-8-8s3.6-8,8-8s8,3.6,8,8S20.4,24,16,24z M16,10c-3.3,0-6,2.7-6,6s2.7,6,6,6s6-2.7,6-6
		S19.3,10,16,10z"/>
	<path class="st0" d="M14.9,18.8c-0.5,0-1-0.2-1.3-0.5l-1.3-1.6c-0.4-0.4-0.3-1.1,0.1-1.4s1.1-0.3,1.4,0.1l0,0l1.1,1.3l3.4-3.4
		c0.4-0.4,1-0.4,1.4,0s0.4,1,0,1.4l-3.5,3.5C15.8,18.6,15.4,18.8,14.9,18.8z"/>
</g>
</svg>
