<?xml version="1.0" encoding="utf-8"?>
<!-- Generator: Adobe Illustrator 22.0.1, SVG Export Plug-In . SVG Version: 6.00 Build 0)  -->
<svg version="1.1" id="Icons" xmlns="http://www.w3.org/2000/svg" xmlns:xlink="http://www.w3.org/1999/xlink" x="0px" y="0px"
	 viewBox="0 0 32 32" style="enable-background:new 0 0 32 32;" xml:space="preserve">
<style type="text/css">
	.st0{fill:#EE8B00;}
</style>
<title>warning</title>
<g id="Warning">
	<path class="st0" d="M16,24c-4.4,0-8-3.6-8-8s3.6-8,8-8s8,3.6,8,8S20.4,24,16,24z M16,10c-3.3,0-6,2.7-6,6s2.7,6,6,6s6-2.7,6-6
		S19.3,10,16,10z"/>
	<path class="st0" d="M16,17c-0.6,0-1-0.4-1-1v-3c0-0.6,0.4-1,1-1c0.6,0,1,0.4,1,1v3C17,16.6,16.6,17,16,17z"/>
	<path class="st0" d="M16,20c-0.6,0-1-0.5-1-1c0-0.1,0-0.3,0.1-0.4c0.1-0.1,0.1-0.2,0.2-0.3c0,0,0.1-0.1,0.2-0.1
		c0.1,0,0.1-0.1,0.2-0.1l0.2-0.1c0.2,0,0.4,0,0.6,0.1c0.3,0.1,0.4,0.3,0.5,0.5c0.2,0.5,0,1.1-0.5,1.3C16.3,20,16.1,20,16,20z"/>
</g>
</svg>
