<svg id="Icons" xmlns="http://www.w3.org/2000/svg" viewBox="0 0 32 32"><title>food2</title><path id="Food_2_" data-name="Food(2)" d="M26,8a.93.93,0,0,0-.22-.59,1.33,1.33,0,0,0-.1-.28A.75.75,0,0,0,25.61,7L24,4.69V1a1,1,0,0,0-.62-.92,1,1,0,0,0-1.09.21L20.16,2.43l-1.33-2a1,1,0,0,0-1.66,0L16,2.2,14.83.45a1,1,0,0,0-1.66,0l-1.33,2L9.71.29A1,1,0,0,0,8.62.08,1,1,0,0,0,8,1V4.69L6.39,7a.75.75,0,0,0-.07.12A3,3,0,0,0,6,8.47V29a3,3,0,0,0,3,3H23a3,3,0,0,0,3-3V8.47c0-.1,0-.2,0-.3A1,1,0,0,0,26,8ZM9.82,5.57s0-.06,0-.09a1.08,1.08,0,0,0,.08-.19,1.06,1.06,0,0,0,0-.19S10,5,10,5V3.41l1.29,1.3A1,1,0,0,0,12.1,5a1,1,0,0,0,.73-.45L14,2.8l1.17,1.75a1,1,0,0,0,1.66,0L18,2.8l1.17,1.75A1,1,0,0,0,19.9,5a1,1,0,0,0,.81-.29L22,3.41V5s0,.06,0,.1a1.06,1.06,0,0,0,0,.19,1.08,1.08,0,0,0,.08.19s0,.06,0,.09l1,1.43H8.83ZM24,9V26H8V9ZM23,30H9a1,1,0,0,1-1-1V28H24v1A1,1,0,0,1,23,30Z" style="fill:#767676"/></svg>