<svg id="Icons" xmlns="http://www.w3.org/2000/svg" viewBox="0 0 32 32"><title>groomer</title><path id="Groomer" d="M30.38,5l-.67-.67h0L26.21.79a1,1,0,0,0-1.42,1.42L27.59,5,26,6.59l-3.29-3.3a1,1,0,0,0-1.42,1.42L24.59,8,23,9.59l-3.29-3.3a1,1,0,0,0-1.42,1.42L21.59,11,20,12.59l-3.29-3.3a1,1,0,0,0-1.42,1.42L18.59,14,17,15.59l-3.29-3.3a1,1,0,0,0-1.42,1.42L15.59,17,14,18.59l-3.29-3.3a1,1,0,0,0-1.42,1.42L12.59,20,11,21.59l-3.29-3.3a1,1,0,0,0-1.42,1.42L9.59,23,8,24.59l-3.29-3.3a1,1,0,0,0-1.42,1.42L6.59,26,5,27.59l-3.29-3.3A1,1,0,0,0,.29,25.71l4,4h0l.67.67a5,5,0,0,0,7.08,0L30.38,12a5,5,0,0,0,0-7.08ZM29,10.62,10.62,29a3,3,0,0,1-4.2,0L29,6.42a3,3,0,0,1,0,4.2Z" style="fill:#767676"/></svg>