<svg id="Icons" xmlns="http://www.w3.org/2000/svg" viewBox="0 0 32 32"><title>health</title><g id="Health"><path d="M20,24a1,1,0,0,1-.69-.27,1,1,0,0,1,0-1.42l8.89-9.38A6.43,6.43,0,0,0,29.5,11a6.66,6.66,0,0,0,.38-3.78,6.49,6.49,0,0,0-5.09-5.1,6.57,6.57,0,0,0-5.43,1.37A6.49,6.49,0,0,0,17,8.5a1,1,0,0,1-2,0,6.49,6.49,0,0,0-2.36-5A6.57,6.57,0,0,0,7.21,2.12,6.49,6.49,0,0,0,2.52,11,6.34,6.34,0,0,0,3.86,13l8.87,9.35a1,1,0,1,1-1.46,1.38L2.41,14.34A8.37,8.37,0,0,1,.68,11.82,8.5,8.5,0,0,1,13.92,2,8.37,8.37,0,0,1,16,4.5,8.5,8.5,0,0,1,31.84,6.84a8.58,8.58,0,0,1-.5,4.94,8.39,8.39,0,0,1-1.74,2.53l-8.87,9.38A1,1,0,0,1,20,24Z" style="fill:#767676"/><path d="M23,30H17V16l2.4,1.8a1,1,0,0,0,.6.2,1,1,0,0,0,.8-.4,1,1,0,0,0-.2-1.4l-2.8-2.1a3,3,0,0,0-3.6,0l-2.8,2.1a1,1,0,1,0,1.2,1.6L15,16V30H9a1,1,0,0,0,0,2H23a1,1,0,0,0,0-2Z" style="fill:#767676"/></g></svg>