<svg id="Icons" xmlns="http://www.w3.org/2000/svg" viewBox="0 0 32 32"><title>knowledge</title><g id="Knowledge"><path d="M28,25H24.64A9,9,0,0,0,21.15,9.27l7.56-7.56A1,1,0,0,0,28.92.62,1,1,0,0,0,28,0H22a1,1,0,0,0-.71.29L16.53,5.05A4.75,4.75,0,0,0,16,5a5,5,0,0,0-5,5,4.75,4.75,0,0,0,.05.53L7.29,14.29a1,1,0,0,0,0,1.42l.8.79-.8.79a1,1,0,0,0,0,1.42,1,1,0,0,0,1.42,0l.79-.8.79.8a1,1,0,0,0,1.42,0L15.47,15A4.75,4.75,0,0,0,16,15a5,5,0,0,0,4.82-3.75A7,7,0,0,1,19,25H5a2,2,0,0,0-2,2v2a3,3,0,0,0,3,3H27a3,3,0,0,0,3-3V27A2,2,0,0,0,28,25ZM22.41,2h3.18L20.23,7.36a5.24,5.24,0,0,0-1.59-1.59ZM11,16.59,9.41,15l2.36-2.36a5.24,5.24,0,0,0,1.59,1.59ZM16,13a3,3,0,1,1,3-3A3,3,0,0,1,16,13ZM28,29a1,1,0,0,1-1,1H6a1,1,0,0,1-1-1V27H28Z" style="fill:#767676"/><path d="M6.29,22.71a1,1,0,0,0,1.42,0,1,1,0,0,0,0-1.42l-3-3a1,1,0,0,0-1.42,1.42Z" style="fill:#767676"/><path d="M15.29,9.29A1.05,1.05,0,0,0,15,10a1,1,0,0,0,.29.71,1.15,1.15,0,0,0,.33.21.94.94,0,0,0,.76,0,1.15,1.15,0,0,0,.33-.21A1,1,0,0,0,17,10a1,1,0,0,0-1.71-.71Z" style="fill:#767676"/></g></svg>